<svg id="Capa_1" data-name="Capa 1" xmlns="http://www.w3.org/2000/svg" xmlns:xlink="http://www.w3.org/1999/xlink" viewBox="0 0 1443 572.64"><defs><style>.cls-1{fill:#fff;}.cls-1,.cls-2,.cls-3,.cls-30,.cls-31,.cls-4,.cls-5,.cls-6,.cls-7,.cls-8{fill-rule:evenodd;}.cls-2{fill:url(#linear-gradient);}.cls-3{fill:url(#linear-gradient-2);}.cls-4{fill:url(#linear-gradient-3);}.cls-5{fill:url(#linear-gradient-4);}.cls-6{fill:url(#linear-gradient-5);}.cls-7{fill:url(#linear-gradient-6);}.cls-8{fill:url(#linear-gradient-7);}.cls-9{fill:url(#linear-gradient-8);}.cls-10{fill:url(#linear-gradient-9);}.cls-11{fill:url(#linear-gradient-10);}.cls-12{fill:url(#linear-gradient-11);}.cls-13{fill:url(#linear-gradient-12);}.cls-14{fill:url(#linear-gradient-13);}.cls-15{fill:url(#linear-gradient-14);}.cls-16{fill:url(#linear-gradient-15);}.cls-17{fill:url(#linear-gradient-16);}.cls-18{fill:url(#linear-gradient-17);}.cls-19{fill:url(#linear-gradient-18);}.cls-20{fill:url(#linear-gradient-19);}.cls-21{fill:url(#linear-gradient-20);}.cls-22{fill:url(#linear-gradient-21);}.cls-23{fill:url(#linear-gradient-22);}.cls-24{fill:url(#linear-gradient-23);}.cls-25{fill:url(#linear-gradient-24);}.cls-26{fill:url(#linear-gradient-25);}.cls-27{fill:url(#linear-gradient-26);}.cls-28{fill:url(#linear-gradient-27);}.cls-29{fill:url(#linear-gradient-28);}.cls-30{fill:url(#linear-gradient-29);}.cls-31{fill:url(#linear-gradient-30);}</style><linearGradient id="linear-gradient" x1="1318.6" y1="894.94" x2="1555.08" y2="894.94" gradientUnits="userSpaceOnUse"><stop offset="0.07" stop-color="#c0962a"/><stop offset="0.08" stop-color="#cba33a"/><stop offset="0.13" stop-color="#e3c05d"/><stop offset="0.17" stop-color="#f3d273"/><stop offset="0.2" stop-color="#f8d97b"/><stop offset="0.25" stop-color="#ddb85d"/><stop offset="0.31" stop-color="#bf953d"/><stop offset="0.37" stop-color="#a97b25"/><stop offset="0.42" stop-color="#9d6b17"/><stop offset="0.46" stop-color="#986612"/><stop offset="0.53" stop-color="#9e6d15"/><stop offset="0.63" stop-color="#ad7f1f"/><stop offset="0.72" stop-color="#c0962a"/></linearGradient><linearGradient id="linear-gradient-2" x1="489.27" y1="712.31" x2="1573.23" y2="706.44" xlink:href="#linear-gradient"/><linearGradient id="linear-gradient-3" x1="356.66" y1="685.01" x2="714.15" y2="685.01" xlink:href="#linear-gradient"/><linearGradient id="linear-gradient-4" x1="698.66" y1="706.1" x2="1025.34" y2="706.1" xlink:href="#linear-gradient"/><linearGradient id="linear-gradient-5" x1="689.77" y1="724.42" x2="1028.64" y2="724.42" xlink:href="#linear-gradient"/><linearGradient id="linear-gradient-6" x1="124.58" y1="767.18" x2="554.16" y2="767.18" gradientTransform="matrix(0.98, 0.02, -0.02, 1, 25.5, -5.98)" xlink:href="#linear-gradient"/><linearGradient id="linear-gradient-7" x1="492.91" y1="1013.89" x2="1249.94" y2="1013.89" xlink:href="#linear-gradient"/><linearGradient id="linear-gradient-8" x1="454.87" y1="876.31" x2="1273.87" y2="876.31" xlink:href="#linear-gradient"/><linearGradient id="linear-gradient-9" x1="453.63" y1="865.74" x2="1282.62" y2="865.74" xlink:href="#linear-gradient"/><linearGradient id="linear-gradient-10" x1="454.95" y1="855.63" x2="1273.07" y2="855.63" xlink:href="#linear-gradient"/><linearGradient id="linear-gradient-11" x1="453.41" y1="844.41" x2="1278.8" y2="844.41" xlink:href="#linear-gradient"/><linearGradient id="linear-gradient-12" x1="452.52" y1="836.7" x2="1280.36" y2="836.7" xlink:href="#linear-gradient"/><linearGradient id="linear-gradient-13" x1="451.66" y1="834.8" x2="1280.91" y2="834.8" xlink:href="#linear-gradient"/><linearGradient id="linear-gradient-14" x1="450.13" y1="838.9" x2="1281.73" y2="838.9" xlink:href="#linear-gradient"/><linearGradient id="linear-gradient-15" x1="446.04" y1="842.39" x2="1283.02" y2="842.39" xlink:href="#linear-gradient"/><linearGradient id="linear-gradient-16" x1="458.03" y1="849.26" x2="1278.47" y2="849.26" xlink:href="#linear-gradient"/><linearGradient id="linear-gradient-17" x1="458.69" y1="861.71" x2="1278.57" y2="861.71" xlink:href="#linear-gradient"/><linearGradient id="linear-gradient-18" x1="463.71" y1="874.66" x2="1278.4" y2="874.66" xlink:href="#linear-gradient"/><linearGradient id="linear-gradient-19" x1="589.89" y1="974.56" x2="1148.43" y2="974.56" xlink:href="#linear-gradient"/><linearGradient id="linear-gradient-20" x1="589.56" y1="963.31" x2="1150.79" y2="963.31" xlink:href="#linear-gradient"/><linearGradient id="linear-gradient-21" x1="588.9" y1="953.82" x2="1153.55" y2="953.82" xlink:href="#linear-gradient"/><linearGradient id="linear-gradient-22" x1="587.91" y1="947.83" x2="1155.87" y2="947.83" xlink:href="#linear-gradient"/><linearGradient id="linear-gradient-23" x1="587.5" y1="943.69" x2="1156.21" y2="943.69" xlink:href="#linear-gradient"/><linearGradient id="linear-gradient-24" x1="587.92" y1="944.12" x2="1155.51" y2="944.12" xlink:href="#linear-gradient"/><linearGradient id="linear-gradient-25" x1="588.22" y1="947.16" x2="1155.35" y2="947.16" xlink:href="#linear-gradient"/><linearGradient id="linear-gradient-26" x1="587.62" y1="953.15" x2="1155.44" y2="953.15" xlink:href="#linear-gradient"/><linearGradient id="linear-gradient-27" x1="593.42" y1="963.34" x2="1153.66" y2="963.34" xlink:href="#linear-gradient"/><linearGradient id="linear-gradient-28" x1="594.42" y1="973.43" x2="1153.31" y2="973.43" xlink:href="#linear-gradient"/><linearGradient id="linear-gradient-29" x1="779.81" y1="676.69" x2="1116" y2="676.69" gradientTransform="matrix(-1.1, 0, 0, 1, 2224.59, 0)" xlink:href="#linear-gradient"/><linearGradient id="linear-gradient-30" x1="371.61" y1="904.25" x2="531.17" y2="904.25" gradientTransform="matrix(-1.53, 0, 0, 1, 979.69, 0)" xlink:href="#linear-gradient"/></defs><title>Logo_para_web</title><path class="cls-1" d="M991.4,596.83c-3.88,0-7-6.05-8.89-10.16-7.21,8.88-10,22.19-26.67,21.59-11.42-6.78-15.12-21.29-19.05-35.56-7.94,9.82-13.58,23.5-29.85,23.5-12.45,0-25.15-10.88-25.4-21.59s8.36-15.66,15.24-22.86c2.59-.17,4.31-1.2,6.35-1.91-6-12.25-23.62,1.31-32.38-2.54-1.07-3.7,1.88-5.72,2.54-8.89,2.73-13.21-6.33-25.34-14-31.75-6.59,5.6-14.72,14.65-14.61,26,.06,5.86,3.9,9.49,3.18,15.24-8.14,2.52-25.21-9.56-32.39,1.27,9.77,5.21,20.22,11,21.59,22.22,1.46,11.93-10.86,24.28-24.13,24.77-16.84.61-23.21-13-30.48-23.5-5.65,12.45-7.5,35.25-22.22,36.2-11.86.76-17.86-13.52-23.5-22.23-2.76,3.8-4.17,9-8.89,10.8-2.52-3.19-4.87-6.56-5.71-11.43C715,585,710,582,704.38,577.78c-5.2-3.88-9-9.37-13.34-12.7-1.95-1.48-5.27-1.35-7-3.17-3.16-3.39-3-9.72-2.54-14.61,9.46-.35,12.76,5.45,12.71,14.61,7.59,9.76,16.93,17.77,32.38,19.68-.28,3.67.28,6.49,1.91,8.26,6-.58,4.43-8.69,5.71-14,7.3,5.68,9,16,16.51,21.59,2.62,2,5.68,2.58,8.89,4.44,6.3-2.61,10-6.53,13.34-12.06,2.92-4.86,6.81-13.31,5.71-19.69-.56-3.29-4.87-5.7-5.08-8.89-.24-3.67,2.48-6.33,4.45-8.25,9.54-1.1,11.83,10.55,7,16.51,4.29,9.57,14.55,20.89,27.31,22.22,12.21,1.28,24.36-9.84,20.32-21.59-3.91-11.35-16.39-18.76-28.58-22.22,3.47-18,30.51-7.18,40.64-2.54-8.1-13.89-1.4-33.94,8.26-41.28-8-10.47-1.83-28.07,5.71-34.29,9.26,5.09,15.44,23.69,7,33.66,9.24,7.64,16.87,27.84,8.25,41.91,10.27-4.48,37.15-15.48,40.64,2.54-11,3.82-17.54,6.83-22.86,12.7-3,3.3-7.08,9-6.35,15.87.91,8.46,10.35,16.39,21,15.24,10.09-1.09,26.77-12.78,27.3-21.59.27-4.44-3.08-4.74-2.54-9.52.44-3.87,5.22-8.22,8.89-7.62,8.4,1.36,3.54,15.4,0,16.51,1.15,15.79,7.24,26.63,18.42,32.38,14.25-2.89,17.79-16.5,25.4-26,2.62,3.94.22,12.9,5.71,14,2.83-1,3.32-4.31,3.18-8.26,15.4-1.53,23.67-10.19,31.75-19.05.15-9.16,3.32-15.3,12.7-15.24.8,4.89.59,11.34-2.54,14.61-1.63,1.7-4.43,1.18-6.35,2.54-3.41,2.39-6.3,7.52-10.16,10.79-5.69,4.83-11.3,8.59-20.32,10.16-2.16,1.67-1.53,8-5.72,5.72-.43,1.7,1.32,1.22,1.91,1.9-.76,2.64-2.18-.49-3.81-.63C986.48,591.3,994.07,594.91,991.4,596.83Z" transform="translate(-130.66 -469.83)"/><path class="cls-1" d="M706.92,591.12c0-1.93,2.22-1.59,3.81-1.91C710.36,590.75,708.33,590.62,706.92,591.12Z" transform="translate(-130.66 -469.83)"/><path class="cls-1" d="M713.27,590.48c-1.54.91-3.49,3.68-5.08,2.54C708.5,590.89,711.39,589.07,713.27,590.48Z" transform="translate(-130.66 -469.83)"/><path class="cls-1" d="M978.7,659.7c-.53,2.5-4,.72-5.08.63C938.33,657.74,899.84,654,860,654c-21,0-42,.54-62.23,1.91-20.35,1.37-39.86,4.38-57.78,3.81-1.87-5.31,4.27-5.28,7-5.72,66.76-10.87,150.36-7.33,219.71,0C971.49,654.5,982,653.17,978.7,659.7Z" transform="translate(-130.66 -469.83)"/><path class="cls-1" d="M971.08,664.78v11.43c-69.33-8.27-156.29-8.93-225.43,0V664.78C814.27,655.71,902.76,654.87,971.08,664.78Z" transform="translate(-130.66 -469.83)"/><path class="cls-1" d="M979.33,682.56v6.35c-8.73.55-17.93-1.46-27.3-2.54-65.78-7.58-150-4.8-211.46,3.17v-6.35c11.26-4.24,24.3-5.1,37.47-6.35C842.68,670.72,919.38,675.46,979.33,682.56Z" transform="translate(-130.66 -469.83)"/><path class="cls-1" d="M1549.57,831.78c-20,26.23-67.63,25.18-104.78,33.66-39.33,9-63.34,20.73-76.2,53.34-.12.29-.4,5.06-2.54,3.81-2.34,1.29-3.14-2.74-3.81-3.81-3.67-5.87-7.38-12.24-13.34-15.24-11.75-5.93-27.44,3-29.84,14.6-2.11,10.21,3.25,22.6,12.7,22.86,5.22.15,11-4.87,9.52-10.79-2.66-1.58-5.81,1.79-10.15.63-11.65-11.33,3.07-27.76,17.77-19.68,14.46,7.94,16.58,35.19,8.26,48.89,5.19-4.76,8.53-14.74,11.43-19.68,3,1.15,3.05,4.67,5.08,7.62,11.73,17.08,53.09,32.65,62.23,5.71-7.83,3.1-18.2,9.17-29.85,7.62-5.57-.74-11.31-3.68-14-6.35,22.32,9.87,46.94-6.43,43.17-27.94-1.67-9.57-20.88-17.43-23.49-3.81,19.77,5.35,11.45,32.42-10.16,30.48s-34-29.77-20.32-48.26c12.11-16.35,43.84-22.72,73.66-26,36.72-4.08,77.37-2.24,93.34-25.4-21.37,14-53.79,15.45-85.72,17.78-21.23,1.54-40.6,9.85-57.15,14.6,26.53-19.39,82.47-17.77,118.75-30.48,15.79-5.53,35.77-14.94,29.84-34.29C1553,825.46,1551.81,828.85,1549.57,831.78Z" transform="translate(-130.66 -469.83)"/><path class="cls-2" d="M1554,821.62c5.93,19.35-14,28.76-29.84,34.29-36.28,12.71-92.22,11.09-118.75,30.48,16.55-4.75,35.92-13.06,57.15-14.6,31.93-2.33,64.35-3.83,85.72-17.78-16,23.16-56.62,21.32-93.34,25.4-29.82,3.31-61.55,9.68-73.66,26-13.69,18.49-1.22,46.33,20.32,48.26s29.93-25.13,10.16-30.48c2.61-13.62,21.82-5.76,23.49,3.81,3.77,21.51-20.85,37.81-43.17,27.94,2.65,2.67,8.39,5.61,14,6.35,11.65,1.55,22-4.52,29.85-7.62-9.14,26.94-50.5,11.37-62.23-5.71-2-3-2.06-6.47-5.08-7.62-2.9,4.94-6.24,14.92-11.43,19.68,8.32-13.7,6.2-40.95-8.26-48.89-14.7-8.08-29.42,8.35-17.77,19.68,4.34,1.16,7.49-2.21,10.15-.63,1.53,5.92-4.3,10.94-9.52,10.79-9.45-.26-14.81-12.65-12.7-22.86,2.4-11.64,18.09-20.53,29.84-14.6,6,3,9.67,9.37,13.34,15.24.67,1.07,1.47,5.1,3.81,3.81,2.14,1.25,2.42-3.52,2.54-3.81,12.86-32.61,36.87-44.37,76.2-53.34,37.15-8.48,84.73-7.43,104.78-33.66C1551.81,828.85,1553,825.46,1554,821.62Z" transform="translate(-130.66 -469.83)"/><path class="cls-3" d="M990.13,592.39c1.63.14,3,3.27,3.81.63-.59-.68-2.34-.2-1.91-1.9,4.19,2.3,3.56-4,5.72-5.72,9-1.57,14.63-5.33,20.32-10.16,3.86-3.27,6.75-8.4,10.16-10.79,1.92-1.36,4.72-.84,6.35-2.54,3.13-3.27,3.34-9.72,2.54-14.61-9.38-.06-12.55,6.08-12.7,15.24-8.08,8.86-16.35,17.52-31.75,19.05.14,3.95-.35,7.27-3.18,8.26-5.49-1.07-3.09-10-5.71-14-7.61,9.53-11.15,23.14-25.4,26-11.18-5.75-17.27-16.59-18.42-32.38,3.54-1.11,8.4-15.15,0-16.51-3.67-.6-8.45,3.75-8.89,7.62-.54,4.78,2.81,5.08,2.54,9.52-.53,8.81-17.21,20.5-27.3,21.59-10.61,1.15-20-6.78-21-15.24-.73-6.84,3.36-12.57,6.35-15.87,5.32-5.87,11.81-8.88,22.86-12.7-3.49-18-30.37-7-40.64-2.54,8.62-14.07,1-34.27-8.25-41.91,8.45-10,2.27-28.57-7-33.66-7.54,6.22-13.72,23.82-5.71,34.29-9.66,7.34-16.36,27.39-8.26,41.28-10.13-4.64-37.17-15.43-40.64,2.54,12.19,3.46,24.67,10.87,28.58,22.22,4,11.75-8.11,22.87-20.32,21.59-12.76-1.33-23-12.65-27.31-22.22,4.85-6,2.56-17.61-7-16.51-2,1.92-4.69,4.58-4.45,8.25.21,3.19,4.52,5.6,5.08,8.89,1.1,6.38-2.79,14.83-5.71,19.69-3.33,5.53-7,9.45-13.34,12.06-3.21-1.86-6.27-2.47-8.89-4.44-7.48-5.64-9.21-15.91-16.51-21.59-1.28,5.28.27,13.39-5.71,14-1.63-1.77-2.19-4.59-1.91-8.26-15.45-1.91-24.79-9.92-32.38-19.68,0-9.16-3.25-15-12.71-14.61-.49,4.89-.62,11.22,2.54,14.61,1.72,1.82,5,1.69,7,3.17,4.38,3.33,8.14,8.82,13.34,12.7C710,582,715,585,722.16,586c.84,4.87,3.19,8.24,5.71,11.43,4.72-1.85,6.13-7,8.89-10.8,5.64,8.71,11.64,23,23.5,22.23,14.72-.95,16.57-23.75,22.22-36.2,7.27,10.51,13.64,24.11,30.48,23.5,13.27-.49,25.59-12.84,24.13-24.77-1.37-11.23-11.82-17-21.59-22.22,7.18-10.83,24.25,1.25,32.39-1.27.72-5.75-3.12-9.38-3.18-15.24-.11-11.39,8-20.44,14.61-26,7.64,6.41,16.7,18.54,14,31.75-.66,3.17-3.61,5.19-2.54,8.89,8.76,3.85,26.37-9.71,32.38,2.54-2,.71-3.76,1.74-6.35,1.91-6.88,7.2-15.48,12.3-15.24,22.86s13,21.59,25.4,21.59c16.27,0,21.91-13.68,29.85-23.5,3.93,14.27,7.63,28.78,19.05,35.56,16.68.6,19.46-12.71,26.67-21.59,1.89,4.11,5,10.13,8.89,10.16C994.07,594.91,986.48,591.3,990.13,592.39Zm9.52,17.14c3.53-9.17,11-17.81,14-25.4-3,4.61-8.8,6.43-15.24,7.62-2,3.73-2.36,10.8-5.71,11.43,2-.3,2.27,1.6,1.27,2.54-6.11-1.3-9.34-5.48-12.07-10.16-5.83,7.55-10.81,18-21.59,19.05-16,1.59-19.78-18-25.4-30.48-6.38,8.33-13.29,17.27-26,17.78-16.06.65-31.24-13.81-31.75-27.94-.44-12,7.62-18.57,17.14-24.76-11.7-3.39-26.68,13.32-28.57-5.08,8.54-9.57.17-25.68-6.35-31.75-6.13,7.29-14.86,21.27-7.62,32.38-2.31,18.34-18.19-.64-29.21,5.08,30.74,10.4,16.14,51.9-12.7,52.07-14,.09-20.94-10-27.94-18.41-4.38,12-7.55,29.19-20.32,31.11-13.31,2-19.22-11.62-26.67-19.05-1.73,4-3.93,7.5-8.26,8.89-4-3-5.74-8.22-7.62-13.33-5-.57-7.65,1.24-9.52,3.81,2.92,1.6,4.17-3.25,7.62-3.18-1.68,2.08-5.85,4.52-5.08,7,1.6.73,4.18-3,7-3.18-1.42,2.6-5.09,3-5.71,6.35,2.85-.53,3.78-3,6.35-3.81-1.07,2.75-4.86,2.77-4.45,7,2.35,1,4.22-3.21,7-3.81-1.22,2.54-5.8,4.56-4.45,7.62,3.07-.74,4.41-3.22,7.62-3.81-1.71,2.73-5.48,3.4-6.35,7,4.22,0,7.08-4.76,10.8-3.17-3.37,1.39-8.94,3.61-8.9,6.35,4.82,1,11.57-4.94,16.52-3.81-5.07,2.34-11.66,3.16-14.61,7.62,5.35-1.22,11.65-4.86,16.51-4.45-5.14,2.27-11.29,3.53-15.24,7,5.73.58,14.2-4.81,20.32-3.81-6.35,2.32-14.31,3-18.41,7.62,8-1.32,17-5,24.76-4.45-8.05,2.11-17,3.35-23.49,7,12.32,0,28.6-4.83,41.91-3.81-13.62,2.25-29.2,2.55-40,7.62,13.29-1.74,28.36-5.09,41.91-4.45-14,1.91-28.67,3.09-40.64,7,13.12-.23,30.49-5.06,45.09-3.81-15.16,1.56-30.38,3.07-43.18,7,15.4-.48,30.17-5,45.08-3.81-15.08,1.85-30.84,3-43.81,7,16.56-.59,32.65-5,48.89-3.81-16.27,1.72-33.14,2.84-47,7,15.63-.45,36.07-5,53.34-3.81-17.85,1.84-36.52,2.86-52.07,7,20.72-.88,41.36-5.21,62.23-3.81-21.06,1.59-42.43,2.86-61,7,73.46-5.92,156.28-9.49,229.24-.63,1.11-.37,3.73.76,3.81-.64h-4.45c-17.82-2.92-38.11-3.37-55.88-6.35C934.51,642.93,958,647,980,647c-17.25-2.87-36.18-4-53.34-7,19.26,0,37.49,4.42,55.24,3.81-16-2.67-33-4.27-48.89-7a477.45,477.45,0,0,1,50.16,5.08c-12.51-5.27-30.89-4.68-45.08-8.26,16.23-.11,34,4.91,47,3.81-14.81-2.55-30.25-4.47-45.09-7,16.55.6,31.36,2.93,46.36,5.08-11.59-5.14-28.74-4.71-41.91-8.26,15.17-.11,31.72,5.05,43.81,3.81-13.75-2.33-28.13-4-41.27-7,14.94.93,28.59,3.15,42.54,5.08-5.93-4.87-17.16-4.43-24.13-8.26a252.39,252.39,0,0,1,25.4,5.08c-4.35-4.74-13.35-4.85-19-8.25,7.9.77,13.82,3.53,21,5.08-3.58-4.68-11.61-4.9-16.51-8.26,6.59,1,12.09,3.15,17.78,5.08-3.51-4.32-10.56-5.11-15.24-8.25,6.21,0,13,6,17.14,3.81-.33-2.65-7.72-3.7-9.52-7,4.26,1,7,3.6,11.43,4.45-.35-3.9-7.06-4.79-6.35-7.62C994.19,606.53,996.1,608.85,999.65,609.53ZM708.19,593c1.59,1.14,3.54-1.63,5.08-2.54C711.39,589.07,708.5,590.89,708.19,593Zm2.54-3.81c-1.59.32-3.84,0-3.81,1.91C708.33,590.62,710.36,590.75,710.73,589.21ZM966.63,654c-69.35-7.33-153-10.87-219.71,0-2.71.44-8.85.41-7,5.72,17.92.57,37.43-2.44,57.78-3.81C817.92,654.52,839,654,860,654c39.89,0,78.38,3.76,113.67,6.35,1.13.09,4.55,1.87,5.08-.63C982,653.17,971.49,654.5,966.63,654Zm-221,10.8v11.43c69.14-8.93,156.1-8.27,225.43,0V664.78C902.76,654.87,814.27,655.71,745.65,664.78ZM778,676.84c-13.17,1.25-26.21,2.11-37.47,6.35v6.35c61.5-8,145.68-10.75,211.46-3.17,9.37,1.08,18.57,3.09,27.3,2.54v-6.35C919.38,675.46,842.68,670.72,778,676.84Zm246.38,40c3.4-.7-3.64-2.16-5.08-2.54-93.35-24.59-230.59-26.4-320.68,1.27C797.35,694.94,926.72,695.9,1024.42,716.85Zm3.17,20.32c3.05-.74-1.64-1.7-.63-1.27a128.15,128.15,0,0,0-14-4.45c-93.89-27.66-235.81-26.63-323.22,5.08C789.93,716.16,928,716.64,1027.59,737.17Zm340.49,85.19c-61.06-10.16-116-42-151.85-74.05-.74-.33-1.63-1-.7,0,41.1,39.58,95.36,75.33,166.72,85.54,80.31,11.5,141.32-16.42,191.41-48.22-19.34.52-34.74-.14-50.14-3.74-21.36-5-37.55-19.4-63-13.59-5.1-15.52-11.52-29.69-23.48-38.22-25.78,44.25-81.83,65.24-142.37,44.93-50.9-17.07-89.12-53.92-122.65-86.71,29.42,37.7,67,75.92,116,95.72,27.56,11.15,60,13.74,86.42,4.55,24.81-8.65,44.49-26.13,62-43,6.61,5.59,12.22,12.21,15.13,21.58-14.26,5-33.3,19.36-24.1,40,22.21,3.57,30.78-9.39,32.76-30.34,35.68-3.26,52.51,25.41,89.3,18.61C1499.32,819.06,1436.39,833.72,1368.08,822.36ZM1246,948.7c1.06-.16,2.21.11,1.27-.64-3.88-3.12-13.36-4.3-17.81-5.62-102.11-30.35-226.82-49.58-357.14-48.87-142.79.77-271,22.31-381.35,54.77-.67,0-.5.82.64.63C709.48,890,1032.14,893.69,1246,948.7Z" transform="translate(-130.66 -469.83)"/><path class="cls-4" d="M654.21,635.57c-3.27-13.52-13.31-2.1-13.33,8.89-.07,32.35,42.35,41,73,43.81,1.51,1.53-4.31,5.34-6.35,6.35-15,7.4-43.48,3.65-58.42-2.54-1.83,32.09-15.83,68.81-49.53,69.85-9.75.3-25.77-4.79-17.15-15.24-20.75-1.79-37.23-24.21-26-46.35,4.84-9.58,22.59-18.66,34.29-15.88,7.38,1.76,12.54,7.64,16.51,14-16,.22-16.42,22.73,2.54,18.42,13.18-3,12.22-28.67,5.08-38.1-16.57-21.89-56.9-2.69-74.93,8.25-29.25,17.75-54.11,42-83.19,58.42-19.34,10.93-54.08,29.57-71.12,7-30.79,3.53-33.61-31.12-24.13-53.34,4.94,12.31,12.41,23.7,30.48,24.13,12.36.29,25.61-4.8,35.56-10.16,10.69-5.76,21.88-14.58,34.29-22.23,11.43-7,23.59-13.72,36.2-20.32,26.19-13.7,54.12-28.29,82.55-30.48,15.54-1.19,27.06,1.24,35.56,8.26C613.41,619,626.53,607.89,650.4,607c10.64-.4,23.15,2.91,28.58,8.89,10.08,11.12,7.64,39-6.35,44.45C654.91,667.29,637.62,643.59,654.21,635.57Zm-16.51-5.08c3.36-8,17.41-11.64,22.86-3.81,7.2,10.34-8.12,16.7-7.62,21.59s10.41,6.54,15.88,4.44c7.37-2.82,9.46-17.25,7-25.4-3.51-11.52-23.07-18.2-38.1-12.06-12.14,5-22.39,27.48-12.7,47-.64,0-.76-.52-1.27-.64-12.59-10.1-30.8-16-47-14.6-8.37.69-16.65,4.52-25.4,7.62-41.07,14.5-76.64,36.94-109.86,58.42-17.78,11.5-49.65,28.12-72.39,12.7,6,29.5,47.54,9.7,63.5,1.27,37.52-19.81,76.1-48.74,112.4-62.87-24.91,14.88-47.76,30.32-71.12,46.36-22.9,15.72-47.53,31.92-79.38,38.1.16,3.8,2.63,3.57,4.45,4.44,16.05,7.72,46.36-9.52,57.15-15.87,28.28-16.66,52.13-41.86,79.37-57.79,14.63-8.55,31.27-17.66,49.53-19,25-1.9,41.51,10.24,43.82,29.85,2.37,20.16-11,36.43-26,36.19-10.38-.16-25-8.91-21.6-23.49,1-4.15,7.9-7.49,7-8.89-19.6-1.94-30.69,12.12-24.13,27.3,4.25,9.84,19.34,18,32.39,16.51,19.05-2.22,35.41-16.86,38.1-34.29-.36,28.44-17.77,39.81-43.19,43.18,4.49,17.13,27.25,1.89,34.93-5.71,14-13.81,19-38,10.8-60.33,6.11,1.88,13.72,5.42,21.59,7.62,7.19,2,18.35,5.25,24.12-.63C659.81,684.79,624.27,662.51,637.7,630.49Z" transform="translate(-130.66 -469.83)"/><path class="cls-5" d="M698.66,715.58c90.09-27.67,227.33-25.86,320.68-1.27,1.44.38,8.48,1.84,5.08,2.54C926.72,695.9,797.35,694.94,698.66,715.58Z" transform="translate(-130.66 -469.83)"/><path class="cls-6" d="M689.77,736.53c87.41-31.71,229.33-32.74,323.22-5.08a128.15,128.15,0,0,1,14,4.45c-1-.43,3.68.53.63,1.27C928,716.64,789.93,716.16,689.77,736.53Z" transform="translate(-130.66 -469.83)"/><path class="cls-7" d="M553.7,700.86c-39.47,41.7-93,96.39-167.84,99.93-52,2.46-83.13-28.48-109.17-58.22-8.43,4-13.44,12-17.88,20.65,13.2,7.35,33.08,21.44,22.29,44.19-23.34,2.22-31.84-11.36-32-33.88-36.74-6.77-55.92,24.55-92.55,12.55,45.1,27.67,112.06,49.09,184.38,41.25,65.6-7.12,120.21-33.46,162-66.07C455.13,802,388.05,840.65,301.47,839.41c-71.45-1-125.22-31.49-170.81-63.61,20.8.21,37.88,1.32,56-2,21.35-3.94,39.07-17.68,62-9.18,7.35-14.93,13.94-30.77,27.71-38.24,23.21,47,79.82,74,144.81,56.57C474.84,768.5,517.37,733.33,553.7,700.86ZM275.48,798.38c2.71-16.35-9.12-24-19-29.55C255.44,786.56,260.47,797.79,275.48,798.38Z" transform="translate(-130.66 -469.83)"/><path class="cls-8" d="M493.94,1038.66c-1.13.18-1.3-.6-.63-.64,110.52-31.86,238.84-52.7,381.63-52.7,130.33,0,254.93,19.9,356.88,50.8,4.44,1.35,13.92,2.58,17.77,5.71,1,.77-.21.48-1.26.64C1034.8,986.3,712.16,980.9,493.94,1038.66Z" transform="translate(-130.66 -469.83)"/><path d="M470.63,907.08c.13,3.42,3.12,5.52,6.79,4.73l1.33-.29c0,.47,0,.7,0,1.16-9.44,2-14.15,3.08-23.56,5.23,0-.47,0-.7,0-1.16l1.33-.31c3.69-.84,6.67-4.31,6.72-7.81l-.27-54.8c-.09-3.47-3.1-5.61-6.79-4.77l-1.33.3,0-1.15c9.41-2.15,14.12-3.2,23.55-5.23,0,.46,0,.7,0,1.16l-1.34.29a8.67,8.67,0,0,0-6.72,7.58Q470.49,879.55,470.63,907.08Zm40.47-7c2.76,2.64,5.1,3.63,10.12,2.79,0,.46,0,.69,0,1.15l-4.34.83c-3.47.67-11.51,1.91-16.95-3.22q-12.66-11.39-25.37-22.73,12.26-17.32,24.58-34.61c1.68-2.41.12-4.55-2.54-4l-1,.21v-1.14c9.35-1.93,14-2.86,23.4-4.66,0,.45,0,.68,0,1.14l-.47.09a19.33,19.33,0,0,0-11.15,6.39q-12.53,16.08-24.95,32.23Q496.8,887.28,511.1,900.09Z" transform="translate(-130.66 -469.83)"/><path d="M527,903v-1.17l1.54-.29c4.29-.8,7.74-4.24,7.81-7.74l-.27-54.8c-.11-3.47-3.59-5.64-7.88-4.84l-1.54.29,0-1.16c10.45-2,15.68-2.91,26.16-4.73v1.16l-1.55.27c-4.21.73-7.62,4-7.81,7.48q.14,27.54.28,55.09c.15,3.42,3.62,5.55,7.87,4.81l1.54-.27,0,1.16C542.65,900,537.42,901,527,903Z" transform="translate(-130.66 -469.83)"/><path d="M645.32,814.8c0,.47,0,.7,0,1.16l-1.93.24a7.4,7.4,0,0,0-6.43,6.63q.12,24.76.25,49.53A110.52,110.52,0,0,0,638.38,887l-1.11.15q-30.12-24.56-60.6-48.65l.24,48.48c.09,3.35,3,5.59,6.48,5l1.93-.3c0,.46,0,.7,0,1.16-8.76,1.37-13.13,2.07-21.88,3.54,0-.46,0-.7,0-1.16l1.93-.32a7.73,7.73,0,0,0,6.41-7.14q-.12-24.84-.25-49.7a93.78,93.78,0,0,0-1.18-14.33l1.24-.15q30.4,23.77,60.44,48l-.24-48.17a5.46,5.46,0,0,0-6.48-5l-1.93.26c0-.47,0-.7,0-1.16C632.16,816.45,636.54,815.88,645.32,814.8Z" transform="translate(-130.66 -469.83)"/><path d="M726.25,863c-8.18,10.31-20.15,16.41-33.12,17.9-20.85,2.38-38.36-10.56-38.35-32.37s16.92-38.1,38-40.58c8.3-1,19.65.3,27.23,4.58l2.65,16.19-1,.09c-3.55-13.85-15.58-18.65-29-17.37-18,1.71-29.44,19.34-29.46,36.12,0,16.46,12.63,31.3,29.93,29.86,8.61-.72,19.72-5.61,25.55-12.39.05-6.18.07-9.27.12-15.45,0-2.93-2-4.4-5.45-4.1l-1.66.14v-1.16c8.55-.75,12.83-1.1,21.39-1.75v1.16l-1.59.12c-3.41.27-5.32,2.06-5.29,5C726.21,854.61,726.22,857.4,726.25,863Z" transform="translate(-130.66 -469.83)"/><path d="M849.21,835.73c.1,21.59-18.7,36.7-39.25,37.44-20.36.74-39.53-13.14-39.59-34.68S788.81,801,809.6,800.22C830.21,799.47,849.12,814.25,849.21,835.73Zm-8.65.14c-.07-16.58-13.33-33.19-30.94-32.17-17.23,1-30.63,17.68-30.6,34.33S792.91,870,810,869.7C827.52,869.4,840.63,852.67,840.56,835.87Z" transform="translate(-130.66 -469.83)"/><path d="M893.94,800.78c4.76,0,11.15-.89,13.21-1.65,0,5.26,0,7.89.07,13.15l-1.29,0v-1.78a5.93,5.93,0,0,0-5.9-6.06c-9.85-.13-14.77-.16-24.61-.15q.08,14.78.14,29.55c8.11,0,12.17,0,20.28.1,3.26,0,4.74-2.19,4.73-4.87,0-.59,0-.89,0-1.48h1.29c0,6.52,0,9.79.08,16.31l-1.29,0c0-.59,0-.88,0-1.47,0-2.61-1.43-4.76-4.5-5-8.22-.09-12.33-.11-20.55-.11,0,10.28.08,15.42.13,25.7a6.62,6.62,0,0,0,6.86,6.26h1.63l0,1.16c-9.77,0-14.65,0-24.42.05V869.3h1.63a6.59,6.59,0,0,0,6.8-6.21L868,808c-.12-3.46-3-6.07-6.87-6h-1.62l0-1.16c6.37-.06,9.56-.07,15.94-.07C882.81,800.69,886.52,800.71,893.94,800.78Z" transform="translate(-130.66 -469.83)"/><path d="M965.83,865.16a7.13,7.13,0,0,0,6.9,6.55l1.36.07c0,.46,0,.7,0,1.16-9.59-.5-14.38-.72-24-1.09,0-.47,0-.7,0-1.16l1.36,0a6.3,6.3,0,0,0,6.84-6l-.27-54.8a7.06,7.06,0,0,0-6.91-6.58l-1.36-.06c0-.46,0-.69,0-1.15,9.59.37,14.38.59,24,1.09v1.16l-1.36-.07a6.25,6.25,0,0,0-6.84,5.76Q965.69,837.63,965.83,865.16Zm41.09,3.86c2.79,3.37,5.16,5,10.24,5.48v1.16l-4.38-.32c-3.52-.27-11.66-1.18-17.18-7.75q-12.84-14.79-25.76-29.5,12.45-14,25-28c1.71-2,.13-4.5-2.58-4.67l-1-.07v-1.13c9.49.58,14.23.9,23.72,1.6V807l-.47,0c-4.47-.32-8.54.87-11.29,3.41q-12.71,12.72-25.32,25.51Q992.42,852.41,1006.92,869Z" transform="translate(-130.66 -469.83)"/><path d="M1023,876.12c0-.46,0-.7,0-1.16l1.55.12c4.34.34,7.83-2.17,7.9-5.65q-.14-27.39-.28-54.79c-.1-3.5-3.62-6.6-8-6.94l-1.56-.12c0-.47,0-.7,0-1.17,10.56.83,15.85,1.28,26.41,2.25v1.16l-1.57-.14c-4.23-.39-7.68,2-7.87,5.39l.27,55.09c.16,3.45,3.66,6.51,7.94,6.9l1.56.15c0,.46,0,.69,0,1.16C1038.82,877.4,1033.54,877,1023,876.12Z" transform="translate(-130.66 -469.83)"/><path d="M1141.9,819.56c0,.46,0,.7,0,1.16l-1.93-.27c-3.44-.49-6.24,1.69-6.43,4.91q.13,24.76.25,49.53a118.32,118.32,0,0,0,1.18,15l-1.11-.16Q1103.7,857.16,1073.1,825l.24,48.47a7.28,7.28,0,0,0,6.51,6.76l1.94.22c0,.46,0,.69,0,1.16-8.8-1-13.2-1.42-22-2.28,0-.47,0-.7,0-1.16l1.94.19a5.62,5.62,0,0,0,6.46-5.42q-.14-24.86-.25-49.7a99.81,99.81,0,0,0-1.19-14.63l1.25.19q30.54,31.77,60.63,64l-.24-48.17a7.57,7.57,0,0,0-6.49-6.67l-1.93-.25c0-.47,0-.7,0-1.16C1128.74,817.71,1133.13,818.31,1141.9,819.56Z" transform="translate(-130.66 -469.83)"/><path d="M1222.35,889.11c-9.1,9.49-21.35,10.36-32.84,9.12-20.36-2.2-37.9-20.38-38.17-42.48-.27-21.68,17.4-33.71,37.77-30.48,8.88,1.41,19.94,5.77,27,11.78,1,6.75,1.58,10.13,2.62,16.88l-1-.19c-2.6-14.34-15.38-22.56-28.71-25-17.61-3.23-29.84,11.76-29.31,28.27.57,17.55,11.24,34.66,29.77,37.74,9.62,1.6,18.16.16,25.36-5.61,0-6.16.07-9.24.11-15.4,0-2.92-2-4.94-5.4-5.54l-1.64-.29c0-.47,0-.7,0-1.16,8.48,1.51,12.71,2.29,21.18,3.91v1.16l-1.57-.3c-3.38-.64-5.27.64-5.24,3.61C1222.31,880.73,1222.32,883.52,1222.35,889.11Z" transform="translate(-130.66 -469.83)"/><path d="M1273.14,883.12a20.83,20.83,0,0,1,5.26,13.61c.16,10.94-10.52,16.51-20.26,14.38-6.73-1.47-15.68-4.86-19.9-9.47a30.75,30.75,0,0,1,1.08-14.2l1.32.26c-1,10.11,6.63,18,16.22,19.66s15.3-2.05,15.26-9.6a14.43,14.43,0,0,0-4.23-10.09q-11.54-11.37-23.12-22.67a19.94,19.94,0,0,1-5.57-13.65c-.18-9.46,8.31-15.32,19-13.12a54.55,54.55,0,0,1,11.38,3.47l3.85.83c.09,5.07.14,7.6.23,12.67l-1.31-.28c0-6.44-4.31-11.21-13.34-13.08-7.69-1.6-13.86,2.08-13.79,8.26,0,3,1,6.4,4.58,10.06Q1261.47,871.62,1273.14,883.12Z" transform="translate(-130.66 -469.83)"/><path class="cls-9" d="M470.63,907.08c.13,3.42,3.12,5.52,6.79,4.73l1.33-.29c0,.47,0,.7,0,1.16-9.44,2-14.15,3.08-23.56,5.23,0-.47,0-.7,0-1.16l1.33-.31c3.69-.84,6.67-4.31,6.72-7.81l-.27-54.8c-.09-3.47-3.1-5.61-6.79-4.77l-1.33.3,0-1.15c9.41-2.15,14.12-3.2,23.55-5.23,0,.46,0,.7,0,1.16l-1.34.29a8.67,8.67,0,0,0-6.72,7.58Q470.49,879.55,470.63,907.08Zm40.47-7c2.76,2.64,5.1,3.63,10.12,2.79,0,.46,0,.69,0,1.15l-4.34.83c-3.47.67-11.51,1.91-16.95-3.22q-12.66-11.39-25.37-22.73,12.26-17.32,24.58-34.61c1.68-2.41.12-4.55-2.54-4l-1,.21v-1.14c9.35-1.93,14-2.86,23.4-4.66,0,.45,0,.68,0,1.14l-.47.09a19.33,19.33,0,0,0-11.15,6.39q-12.53,16.08-24.95,32.23Q496.8,887.28,511.1,900.09Z" transform="translate(-130.66 -469.83)"/><path class="cls-10" d="M527,903v-1.17l1.54-.29c4.29-.8,7.74-4.24,7.81-7.74l-.27-54.8c-.11-3.47-3.59-5.64-7.88-4.84l-1.54.29,0-1.16c10.45-2,15.68-2.91,26.16-4.73v1.16l-1.55.27c-4.21.73-7.62,4-7.81,7.48q.14,27.54.28,55.09c.15,3.42,3.62,5.55,7.87,4.81l1.54-.27,0,1.16C542.65,900,537.42,901,527,903Z" transform="translate(-130.66 -469.83)"/><path class="cls-11" d="M645.32,814.8c0,.47,0,.7,0,1.16l-1.93.24a7.4,7.4,0,0,0-6.43,6.63q.12,24.76.25,49.53A110.52,110.52,0,0,0,638.38,887l-1.11.15q-30.12-24.56-60.6-48.65l.24,48.48c.09,3.35,3,5.59,6.48,5l1.93-.3c0,.46,0,.7,0,1.16-8.76,1.37-13.13,2.07-21.88,3.54,0-.46,0-.7,0-1.16l1.93-.32a7.73,7.73,0,0,0,6.41-7.14q-.12-24.84-.25-49.7a93.78,93.78,0,0,0-1.18-14.33l1.24-.15q30.4,23.77,60.44,48l-.24-48.17a5.46,5.46,0,0,0-6.48-5l-1.93.26c0-.47,0-.7,0-1.16C632.16,816.45,636.54,815.88,645.32,814.8Z" transform="translate(-130.66 -469.83)"/><path class="cls-12" d="M726.25,863c-8.18,10.31-20.15,16.41-33.12,17.9-20.85,2.38-38.36-10.56-38.35-32.37s16.92-38.1,38-40.58c8.3-1,19.65.3,27.23,4.58l2.65,16.19-1,.09c-3.55-13.85-15.58-18.65-29-17.37-18,1.71-29.44,19.34-29.46,36.12,0,16.46,12.63,31.3,29.93,29.86,8.61-.72,19.72-5.61,25.55-12.39.05-6.18.07-9.27.12-15.45,0-2.93-2-4.4-5.45-4.1l-1.66.14v-1.16c8.55-.75,12.83-1.1,21.39-1.75v1.16l-1.59.12c-3.41.27-5.32,2.06-5.29,5C726.21,854.61,726.22,857.4,726.25,863Z" transform="translate(-130.66 -469.83)"/><path class="cls-13" d="M849.21,835.73c.1,21.59-18.7,36.7-39.25,37.44-20.36.74-39.53-13.14-39.59-34.68S788.81,801,809.6,800.22C830.21,799.47,849.12,814.25,849.21,835.73Zm-8.65.14c-.07-16.58-13.33-33.19-30.94-32.17-17.23,1-30.63,17.68-30.6,34.33S792.91,870,810,869.7C827.52,869.4,840.63,852.67,840.56,835.87Z" transform="translate(-130.66 -469.83)"/><path class="cls-14" d="M893.94,800.78c4.76,0,11.15-.89,13.21-1.65,0,5.26,0,7.89.07,13.15l-1.29,0v-1.78a5.93,5.93,0,0,0-5.9-6.06c-9.85-.13-14.77-.16-24.61-.15q.08,14.78.14,29.55c8.11,0,12.17,0,20.28.1,3.26,0,4.74-2.19,4.73-4.87,0-.59,0-.89,0-1.48h1.29c0,6.52,0,9.79.08,16.31l-1.29,0c0-.59,0-.88,0-1.47,0-2.61-1.43-4.76-4.5-5-8.22-.09-12.33-.11-20.55-.11,0,10.28.08,15.42.13,25.7a6.62,6.62,0,0,0,6.86,6.26h1.63l0,1.16c-9.77,0-14.65,0-24.42.05V869.3h1.63a6.59,6.59,0,0,0,6.8-6.21L868,808c-.12-3.46-3-6.07-6.87-6h-1.62l0-1.16c6.37-.06,9.56-.07,15.94-.07C882.81,800.69,886.52,800.71,893.94,800.78Z" transform="translate(-130.66 -469.83)"/><path class="cls-15" d="M965.83,865.16a7.13,7.13,0,0,0,6.9,6.55l1.36.07c0,.46,0,.7,0,1.16-9.59-.5-14.38-.72-24-1.09,0-.47,0-.7,0-1.16l1.36,0a6.3,6.3,0,0,0,6.84-6l-.27-54.8a7.06,7.06,0,0,0-6.91-6.58l-1.36-.06c0-.46,0-.69,0-1.15,9.59.37,14.38.59,24,1.09v1.16l-1.36-.07a6.25,6.25,0,0,0-6.84,5.76Q965.69,837.63,965.83,865.16Zm41.09,3.86c2.79,3.37,5.16,5,10.24,5.48v1.16l-4.38-.32c-3.52-.27-11.66-1.18-17.18-7.75q-12.84-14.79-25.76-29.5,12.45-14,25-28c1.71-2,.13-4.5-2.58-4.67l-1-.07v-1.13c9.49.58,14.23.9,23.72,1.6V807l-.47,0c-4.47-.32-8.54.87-11.29,3.41q-12.71,12.72-25.32,25.51Q992.42,852.41,1006.92,869Z" transform="translate(-130.66 -469.83)"/><path class="cls-16" d="M1023,876.12c0-.46,0-.7,0-1.16l1.55.12c4.34.34,7.83-2.17,7.9-5.65q-.14-27.39-.28-54.79c-.1-3.5-3.62-6.6-8-6.94l-1.56-.12c0-.47,0-.7,0-1.17,10.56.83,15.85,1.28,26.41,2.25v1.16l-1.57-.14c-4.23-.39-7.68,2-7.87,5.39l.27,55.09c.16,3.45,3.66,6.51,7.94,6.9l1.56.15c0,.46,0,.69,0,1.16C1038.82,877.4,1033.54,877,1023,876.12Z" transform="translate(-130.66 -469.83)"/><path class="cls-17" d="M1141.9,819.56c0,.46,0,.7,0,1.16l-1.93-.27c-3.44-.49-6.24,1.69-6.43,4.91q.13,24.76.25,49.53a118.32,118.32,0,0,0,1.18,15l-1.11-.16Q1103.7,857.16,1073.1,825l.24,48.47a7.28,7.28,0,0,0,6.51,6.76l1.94.22c0,.46,0,.69,0,1.16-8.8-1-13.2-1.42-22-2.28,0-.47,0-.7,0-1.16l1.94.19a5.62,5.62,0,0,0,6.46-5.42q-.14-24.86-.25-49.7a99.81,99.81,0,0,0-1.19-14.63l1.25.19q30.54,31.77,60.63,64l-.24-48.17a7.57,7.57,0,0,0-6.49-6.67l-1.93-.25c0-.47,0-.7,0-1.16C1128.74,817.71,1133.13,818.31,1141.9,819.56Z" transform="translate(-130.66 -469.83)"/><path class="cls-18" d="M1222.35,889.11c-9.1,9.49-21.35,10.36-32.84,9.12-20.36-2.2-37.9-20.38-38.17-42.48-.27-21.68,17.4-33.71,37.77-30.48,8.88,1.41,19.94,5.77,27,11.78,1,6.75,1.58,10.13,2.62,16.88l-1-.19c-2.6-14.34-15.38-22.56-28.71-25-17.61-3.23-29.84,11.76-29.31,28.27.57,17.55,11.24,34.66,29.77,37.74,9.62,1.6,18.16.16,25.36-5.61,0-6.16.07-9.24.11-15.4,0-2.92-2-4.94-5.4-5.54l-1.64-.29c0-.47,0-.7,0-1.16,8.48,1.51,12.71,2.29,21.18,3.91v1.16l-1.57-.3c-3.38-.64-5.27.64-5.24,3.61C1222.31,880.73,1222.32,883.52,1222.35,889.11Z" transform="translate(-130.66 -469.83)"/><path class="cls-19" d="M1273.14,883.12a20.83,20.83,0,0,1,5.26,13.61c.16,10.94-10.52,16.51-20.26,14.38-6.73-1.47-15.68-4.86-19.9-9.47a30.75,30.75,0,0,1,1.08-14.2l1.32.26c-1,10.11,6.63,18,16.22,19.66s15.3-2.05,15.26-9.6a14.43,14.43,0,0,0-4.23-10.09q-11.54-11.37-23.12-22.67a19.94,19.94,0,0,1-5.57-13.65c-.18-9.46,8.31-15.32,19-13.12a54.55,54.55,0,0,1,11.38,3.47l3.85.83c.09,5.07.14,7.6.23,12.67l-1.31-.28c0-6.44-4.31-11.21-13.34-13.08-7.69-1.6-13.86,2.08-13.79,8.26,0,3,1,6.4,4.58,10.06Q1261.47,871.62,1273.14,883.12Z" transform="translate(-130.66 -469.83)"/><path d="M608.41,945.84c6.4-1.48,18.54-2.63,18.45,9.33,0,5.56-5,11-9.89,13.3,8.63-.87,15,3.87,14.89,11-.2,10.88-10.24,17.36-20,19.45-8.81,2-13.21,3.06-22,5.25,0-.36,0-.54,0-.91L591,1003a7.07,7.07,0,0,0,5.35-6.16q.16-21.25.31-42.51c-.07-2.9-2.3-4.27-5.28-3.53l-1.05.26v-.89C597.53,948.39,601.15,947.52,608.41,945.84Zm3.44,50.41c7.68-1.74,13.55-6.82,13.61-15.4.09-11.5-11-11-20.58-8.77,0-.36,0-.54,0-.9,6.48-1.52,15.65-4.76,15.72-14.65.06-7.54-4.51-9.78-12.31-8-2.42.56-3.63.84-6,1.42q-.18,24.3-.35,48.6C605.86,997.63,607.86,997.16,611.85,996.25Z" transform="translate(-130.66 -469.83)"/><path d="M688.09,978.16c1.81,3.42,4.5,4.54,6.91,4.18l.68-.1c0,.36,0,.54,0,.9-7.39,1.11-11.09,1.69-18.47,2.92v-.89l.71-.12a4.36,4.36,0,0,0,3.22-5.92c-1.93-4.47-2.9-6.7-4.82-11.17-9.09,1.53-13.63,2.34-22.69,4-2,5.06-3,7.6-5,12.67-1.39,3.86.95,5.46,3,5.06l.71-.14v.89c-6.83,1.3-10.23,2-17.05,3.37V993l.71-.14c2.38-.49,5.19-2.58,7.05-6.61q9.38-21.72,18.83-43.42s3.32-7.5,3.52-9.89l.85-.15Q677.22,955.45,688.09,978.16Zm-12.86-12.71c-4-9.17-5.94-13.75-9.9-22.88q-5.3,13.26-10.55,26.52C663,967.56,667,966.83,675.23,965.45Z" transform="translate(-130.66 -469.83)"/><path d="M723.15,925.42c11.37-1.43,18.31,3.34,18.25,12.43-.06,7.63-6,14.64-14.15,16.43,2,.65,5,3.72,6.9,6.23,0,0,4.13,5.17,7.83,8.93s6.16,6.14,11.18,5.69v.9l-2.85.28c-10,1-13.91-3-16.71-6.11-1-1.1-8.06-10.47-8.76-11.27-2.42-2.75-5.53-5.36-9.1-4.89v-.84s2.22-.25,5.17-.7c5-.76,10.68-1.49,13.33-9.35a16.12,16.12,0,0,0,.66-5.2c-.14-6.72-4.66-10.18-11.92-9.63-5.07.38-9.51,1.2-10.37,1.27L712.28,975a4.25,4.25,0,0,0,5.09,4.2l1.22-.16c0,.36,0,.54,0,.9-7.38.95-11.07,1.46-18.43,2.53,0-.36,0-.54,0-.9l1.21-.18a6,6,0,0,0,5.16-5.48q.15-21.39.31-42.77c-.07-2.65-2.22-4.37-5.08-3.95l-1.22.17c0-.35,0-.53,0-.89C709.59,927.16,714.1,926.55,723.15,925.42Z" transform="translate(-130.66 -469.83)"/><path d="M775.61,920.09c6.5-.5,18.83.19,18.74,12.16,0,5.55-5.07,10.27-10,11.8,8.77.45,15.21,6.1,15.12,13.3-.13,10.9-10.77,15.9-20.28,16.44-9,.67-13.44,1.05-22.4,1.89,0-.36,0-.54,0-.9l1.07-.1a5.85,5.85,0,0,0,5.45-5.35q.16-21.26.31-42.51c-.07-2.91-2.34-4.63-5.38-4.34l-1.07.1v-.89C764.53,921,768.22,920.67,775.61,920.09Zm3.5,51c7.8-.58,13.77-4.77,13.83-13.35.08-11.5-11.17-12.7-20.92-11.91,0-.36,0-.54,0-.9,6.59-.54,15.92-2.39,16-12.28,0-7.54-4.59-10.47-12.52-9.85l-6.16.5q-.16,24.3-.35,48.6C773,971.56,775.05,971.4,779.11,971.09Z" transform="translate(-130.66 -469.83)"/><path d="M845.22,970.8q-18.44.29-36.85,1.19c0-.36,0-.54,0-.9l1.25-.06a5.41,5.41,0,0,0,5.27-5q.15-21.35.31-42.71c0-2.68-2.26-4.62-5.2-4.48l-1.25.06c0-.35,0-.53,0-.89,10.6-.52,15.89-.72,26.49-1a41.16,41.16,0,0,0,10.15-1.63c0,4.08,0,6.12-.07,10.19h-1c0-.55,0-.83,0-1.38a4.35,4.35,0,0,0-4.52-4.54c-7.52.16-11.28.27-18.8.56-.07,9.16-.1,13.74-.17,22.89,6.2-.23,9.3-.33,15.49-.48a3.64,3.64,0,0,0,3.71-3.9v-1.14l1,0L841,950.19h-1v-1.14a3.37,3.37,0,0,0-3.43-3.74c-6.29.15-9.43.25-15.71.48-.07,9.16-.1,13.74-.17,22.9,5.67-.21,8.51-.3,14.19-.45,8.71-.33,11.85-4.57,14.46-10.43h1C848.27,963,847.25,965.6,845.22,970.8Z" transform="translate(-130.66 -469.83)"/><path d="M880.11,916.76c11.44.17,18.4,5.9,18.34,15-.06,7.64-6.07,13.82-14.21,14.48,2,.93,5,4.42,6.93,7.2,0,0,4.15,5.75,7.87,10s6.18,7,11.21,7.25v.9l-2.86-.11c-10-.39-14-5-16.78-8.45-1-1.25-8.09-11.61-8.8-12.51-2.43-3.09-5.55-6.14-9.14-6.17v-.83s2.24.05,5.2,0c5-.07,10.74,0,13.4-7.5a15.51,15.51,0,0,0,.67-5.11c-.14-6.75-4.69-10.84-12-11.31-5.09-.33-9.57-.13-10.43-.18l-.33,45.42a5,5,0,0,0,5.12,4.92h1.23c0,.36,0,.54,0,.9-7.43-.08-11.14-.09-18.56-.05,0-.35,0-.54,0-.89h1.23a5.08,5.08,0,0,0,5.19-4.77q.15-21.37.31-42.76a4.84,4.84,0,0,0-5.12-4.67h-1.23c0-.36,0-.54,0-.9C866.47,916.61,871,916.63,880.11,916.76Z" transform="translate(-130.66 -469.83)"/><path d="M964.5,952.25a13.93,13.93,0,0,1,4,10c0,8-7.18,13.82-16.11,13.11C947,975,940.1,973.2,936.82,970a24.32,24.32,0,0,1,1-11.11l1,.07c-.85,8,4.6,13.23,12.59,13.63,7.49.37,12.09-3.09,12.13-8.94a9.66,9.66,0,0,0-3.24-7.41c-7.2-6.17-10.8-9.23-18-15.3a13.3,13.3,0,0,1-4.25-10c-.06-7.32,6.69-12.72,15.06-12.06a39.16,39.16,0,0,1,9,1.58l3,.26c0,3.92,0,5.89.06,9.81l-1-.1c0-5-3.3-8.27-10.4-8.84-6-.48-10.94,3-10.94,7.77a9.24,9.24,0,0,0,3.51,7.35C953.58,942.88,957.22,946,964.5,952.25Z" transform="translate(-130.66 -469.83)"/><path d="M1017.37,981.15c0-.35,0-.53,0-.89l1,.14a4.39,4.39,0,0,0,5.28-4.07c0-7.84.08-11.75.14-19.59q-16.62-2.29-33.27-4.25l-.15,19.58a5.89,5.89,0,0,0,5.23,5.42l1,.12c0,.36,0,.54,0,.9-7.35-.87-11-1.28-18.4-2,0-.36,0-.54,0-.9l1,.11a4.57,4.57,0,0,0,5.3-4.32q.15-21.23.31-42.45a5.78,5.78,0,0,0-5.23-5.43l-1-.11c0-.36,0-.54,0-.9,7.37.75,11,1.16,18.4,2,0,.36,0,.54,0,.9l-1-.12a4.51,4.51,0,0,0-5.29,4.12l-.15,20.38q16.67,2,33.27,4.25l.15-20.23a6,6,0,0,0-5.21-5.61l-1-.15c0-.36,0-.54,0-.9,7.35,1,11,1.54,18.34,2.67,0,.36,0,.54,0,.9l-1-.16a4.34,4.34,0,0,0-5.27,3.93q-.16,21.35-.31,42.69a6.15,6.15,0,0,0,5.2,5.59l1,.15c0,.36,0,.54,0,.91C1028.38,982.7,1024.71,982.16,1017.37,981.15Z" transform="translate(-130.66 -469.83)"/><path d="M1104.31,969.52c.56,16.37-16.34,24.66-30.34,22.13-15.33-2.77-30.71-16.77-30.06-33.56.62-15.6,15.44-26.06,30.47-23C1089.73,938.3,1103.77,953.59,1104.31,969.52Zm-6.6-1.42c-.14-13.32-10.28-27.63-23.35-30.28-13.33-2.69-23.79,8.23-23.79,21.36S1059.9,986.71,1074,989A20.56,20.56,0,0,0,1097.71,968.1Z" transform="translate(-130.66 -469.83)"/><path d="M1133.2,949.15c10,2.22,20.07,9.58,20.11,20.54.06,15.06-16.44,14-25.61,7.48v-.85s14.08,7.26,18.6-4.49a16,16,0,0,0,.66-4.7c.06-7.31-5.2-13.18-13.89-15.3-3.44-.85-5.16-1.26-8.6-2.07l-.33,45.57a6.7,6.7,0,0,0,5.11,6.06l1.23.3c0,.36,0,.54,0,.9-7.38-1.79-11.07-2.65-18.47-4.32,0-.36,0-.54,0-.9l1.23.28c2.89.66,5.08-1,5.19-3.61q.16-21.33.32-42.66a6.48,6.48,0,0,0-5.13-5.93l-1.23-.28c0-.36,0-.54,0-.9C1120.74,946.14,1124.9,947.12,1133.2,949.15Z" transform="translate(-130.66 -469.83)"/><path class="cls-20" d="M608.41,945.84c6.4-1.48,18.54-2.63,18.45,9.33,0,5.56-5,11-9.89,13.3,8.63-.87,15,3.87,14.89,11-.2,10.88-10.24,17.36-20,19.45-8.81,2-13.21,3.06-22,5.25,0-.36,0-.54,0-.91L591,1003a7.07,7.07,0,0,0,5.35-6.16q.16-21.25.31-42.51c-.07-2.9-2.3-4.27-5.28-3.53l-1.05.26v-.89C597.53,948.39,601.15,947.52,608.41,945.84Zm3.44,50.41c7.68-1.74,13.55-6.82,13.61-15.4.09-11.5-11-11-20.58-8.77,0-.36,0-.54,0-.9,6.48-1.52,15.65-4.76,15.72-14.65.06-7.54-4.51-9.78-12.31-8-2.42.56-3.63.84-6,1.42q-.18,24.3-.35,48.6C605.86,997.63,607.86,997.16,611.85,996.25Z" transform="translate(-130.66 -469.83)"/><path class="cls-21" d="M688.09,978.16c1.81,3.42,4.5,4.54,6.91,4.18l.68-.1c0,.36,0,.54,0,.9-7.39,1.11-11.09,1.69-18.47,2.92v-.89l.71-.12a4.36,4.36,0,0,0,3.22-5.92c-1.93-4.47-2.9-6.7-4.82-11.17-9.09,1.53-13.63,2.34-22.69,4-2,5.06-3,7.6-5,12.67-1.39,3.86.95,5.46,3,5.06l.71-.14v.89c-6.83,1.3-10.23,2-17.05,3.37V993l.71-.14c2.38-.49,5.19-2.58,7.05-6.61q9.38-21.72,18.83-43.42s3.32-7.5,3.52-9.89l.85-.15Q677.22,955.45,688.09,978.16Zm-12.86-12.71c-4-9.17-5.94-13.75-9.9-22.88q-5.3,13.26-10.55,26.52C663,967.56,667,966.83,675.23,965.45Z" transform="translate(-130.66 -469.83)"/><path class="cls-22" d="M723.15,925.42c11.37-1.43,18.31,3.34,18.25,12.43-.06,7.63-6,14.64-14.15,16.43,2,.65,5,3.72,6.9,6.23,0,0,4.13,5.17,7.83,8.93s6.16,6.14,11.18,5.69v.9l-2.85.28c-10,1-13.91-3-16.71-6.11-1-1.1-8.06-10.47-8.76-11.27-2.42-2.75-5.53-5.36-9.1-4.89v-.84s2.22-.25,5.17-.7c5-.76,10.68-1.49,13.33-9.35a16.12,16.12,0,0,0,.66-5.2c-.14-6.72-4.66-10.18-11.92-9.63-5.07.38-9.51,1.2-10.37,1.27L712.28,975a4.25,4.25,0,0,0,5.09,4.2l1.22-.16c0,.36,0,.54,0,.9-7.38.95-11.07,1.46-18.43,2.53,0-.36,0-.54,0-.9l1.21-.18a6,6,0,0,0,5.16-5.48q.15-21.39.31-42.77c-.07-2.65-2.22-4.37-5.08-3.95l-1.22.17c0-.35,0-.53,0-.89C709.59,927.16,714.1,926.55,723.15,925.42Z" transform="translate(-130.66 -469.83)"/><path class="cls-23" d="M775.61,920.09c6.5-.5,18.83.19,18.74,12.16,0,5.55-5.07,10.27-10,11.8,8.77.45,15.21,6.1,15.12,13.3-.13,10.9-10.77,15.9-20.28,16.44-9,.67-13.44,1.05-22.4,1.89,0-.36,0-.54,0-.9l1.07-.1a5.85,5.85,0,0,0,5.45-5.35q.16-21.26.31-42.51c-.07-2.91-2.34-4.63-5.38-4.34l-1.07.1v-.89C764.53,921,768.22,920.67,775.61,920.09Zm3.5,51c7.8-.58,13.77-4.77,13.83-13.35.08-11.5-11.17-12.7-20.92-11.91,0-.36,0-.54,0-.9,6.59-.54,15.92-2.39,16-12.28,0-7.54-4.59-10.47-12.52-9.85l-6.16.5q-.16,24.3-.35,48.6C773,971.56,775.05,971.4,779.11,971.09Z" transform="translate(-130.66 -469.83)"/><path class="cls-24" d="M845.22,970.8q-18.44.29-36.85,1.19c0-.36,0-.54,0-.9l1.25-.06a5.41,5.41,0,0,0,5.27-5q.15-21.35.31-42.71c0-2.68-2.26-4.62-5.2-4.48l-1.25.06c0-.35,0-.53,0-.89,10.6-.52,15.89-.72,26.49-1a41.16,41.16,0,0,0,10.15-1.63c0,4.08,0,6.12-.07,10.19h-1c0-.55,0-.83,0-1.38a4.35,4.35,0,0,0-4.52-4.54c-7.52.16-11.28.27-18.8.56-.07,9.16-.1,13.74-.17,22.89,6.2-.23,9.3-.33,15.49-.48a3.64,3.64,0,0,0,3.71-3.9v-1.14l1,0L841,950.19h-1v-1.14a3.37,3.37,0,0,0-3.43-3.74c-6.29.15-9.43.25-15.71.48-.07,9.16-.1,13.74-.17,22.9,5.67-.21,8.51-.3,14.19-.45,8.71-.33,11.85-4.57,14.46-10.43h1C848.27,963,847.25,965.6,845.22,970.8Z" transform="translate(-130.66 -469.83)"/><path class="cls-25" d="M880.11,916.76c11.44.17,18.4,5.9,18.34,15-.06,7.64-6.07,13.82-14.21,14.48,2,.93,5,4.42,6.93,7.2,0,0,4.15,5.75,7.87,10s6.18,7,11.21,7.25v.9l-2.86-.11c-10-.39-14-5-16.78-8.45-1-1.25-8.09-11.61-8.8-12.51-2.43-3.09-5.55-6.14-9.14-6.17v-.83s2.24.05,5.2,0c5-.07,10.74,0,13.4-7.5a15.51,15.51,0,0,0,.67-5.11c-.14-6.75-4.69-10.84-12-11.31-5.09-.33-9.57-.13-10.43-.18l-.33,45.42a5,5,0,0,0,5.12,4.92h1.23c0,.36,0,.54,0,.9-7.43-.08-11.14-.09-18.56-.05,0-.35,0-.54,0-.89h1.23a5.08,5.08,0,0,0,5.19-4.77q.15-21.37.31-42.76a4.84,4.84,0,0,0-5.12-4.67h-1.23c0-.36,0-.54,0-.9C866.47,916.61,871,916.63,880.11,916.76Z" transform="translate(-130.66 -469.83)"/><path class="cls-26" d="M964.5,952.25a13.93,13.93,0,0,1,4,10c0,8-7.18,13.82-16.11,13.11C947,975,940.1,973.2,936.82,970a24.32,24.32,0,0,1,1-11.11l1,.07c-.85,8,4.6,13.23,12.59,13.63,7.49.37,12.09-3.09,12.13-8.94a9.66,9.66,0,0,0-3.24-7.41c-7.2-6.17-10.8-9.23-18-15.3a13.3,13.3,0,0,1-4.25-10c-.06-7.32,6.69-12.72,15.06-12.06a39.16,39.16,0,0,1,9,1.58l3,.26c0,3.92,0,5.89.06,9.81l-1-.1c0-5-3.3-8.27-10.4-8.84-6-.48-10.94,3-10.94,7.77a9.24,9.24,0,0,0,3.51,7.35C953.58,942.88,957.22,946,964.5,952.25Z" transform="translate(-130.66 -469.83)"/><path class="cls-27" d="M1017.37,981.15c0-.35,0-.53,0-.89l1,.14a4.39,4.39,0,0,0,5.28-4.07c0-7.84.08-11.75.14-19.59q-16.62-2.29-33.27-4.25l-.15,19.58a5.89,5.89,0,0,0,5.23,5.42l1,.12c0,.36,0,.54,0,.9-7.35-.87-11-1.28-18.4-2,0-.36,0-.54,0-.9l1,.11a4.57,4.57,0,0,0,5.3-4.32q.15-21.23.31-42.45a5.78,5.78,0,0,0-5.23-5.43l-1-.11c0-.36,0-.54,0-.9,7.37.75,11,1.16,18.4,2,0,.36,0,.54,0,.9l-1-.12a4.51,4.51,0,0,0-5.29,4.12l-.15,20.38q16.67,2,33.27,4.25l.15-20.23a6,6,0,0,0-5.21-5.61l-1-.15c0-.36,0-.54,0-.9,7.35,1,11,1.54,18.34,2.67,0,.36,0,.54,0,.9l-1-.16a4.34,4.34,0,0,0-5.27,3.93q-.16,21.35-.31,42.69a6.15,6.15,0,0,0,5.2,5.59l1,.15c0,.36,0,.54,0,.91C1028.38,982.7,1024.71,982.16,1017.37,981.15Z" transform="translate(-130.66 -469.83)"/><path class="cls-28" d="M1104.31,969.52c.56,16.37-16.34,24.66-30.34,22.13-15.33-2.77-30.71-16.77-30.06-33.56.62-15.6,15.44-26.06,30.47-23C1089.73,938.3,1103.77,953.59,1104.31,969.52Zm-6.6-1.42c-.14-13.32-10.28-27.63-23.35-30.28-13.33-2.69-23.79,8.23-23.79,21.36S1059.9,986.71,1074,989A20.56,20.56,0,0,0,1097.71,968.1Z" transform="translate(-130.66 -469.83)"/><path class="cls-29" d="M1133.2,949.15c10,2.22,20.07,9.58,20.11,20.54.06,15.06-16.44,14-25.61,7.48v-.85s14.08,7.26,18.6-4.49a16,16,0,0,0,.66-4.7c.06-7.31-5.2-13.18-13.89-15.3-3.44-.85-5.16-1.26-8.6-2.07l-.33,45.57a6.7,6.7,0,0,0,5.11,6.06l1.23.3c0,.36,0,.54,0,.9-7.38-1.79-11.07-2.65-18.47-4.32,0-.36,0-.54,0-.9l1.23.28c2.89.66,5.08-1,5.19-3.61q.16-21.33.32-42.66a6.48,6.48,0,0,0-5.13-5.93l-1.23-.28c0-.36,0-.54,0-.9C1120.74,946.14,1124.9,947.12,1133.2,949.15Z" transform="translate(-130.66 -469.83)"/><path class="cls-30" d="M1054.52,627.25c3.39-13.52,13.82-2.1,13.85,8.89.06,32.35-44,41-75.84,43.81-1.56,1.53,4.48,5.34,6.6,6.35,15.56,7.4,45.15,3.65,60.66-2.54,1.91,32.09,16.44,68.81,51.44,69.85,10.12.3,26.76-4.79,17.8-15.24,21.56-1.79,38.67-24.21,27-46.35-5-9.58-23.46-18.67-35.61-15.88-7.66,1.76-13,7.64-17.14,14,16.56.21,17,22.73-2.64,18.42-13.69-3-12.7-28.67-5.28-38.1,17.2-21.89,59.09-2.69,77.81,8.25,30.38,17.75,56.2,42,86.38,58.42,20.09,10.93,56.17,29.57,73.86,7,32,3.53,34.9-31.12,25.06-53.34-5.13,12.31-12.89,23.7-31.66,24.13-12.83.29-26.59-4.8-36.92-10.16-11.1-5.77-22.72-14.59-35.61-22.23-11.87-7-24.49-13.72-37.59-20.32-27.19-13.71-56.2-28.29-85.72-30.48-16.14-1.2-28.1,1.23-36.93,8.26,2.81-29.31-10.82-40.38-35.61-41.28-11-.4-24,2.9-29.67,8.89-10.47,11.11-7.94,39,6.6,44.45C1053.79,659,1071.75,635.27,1054.52,627.25Zm17.14-5.08c-3.48-8-18.08-11.64-23.74-3.82-7.47,10.35,8.43,16.71,7.92,21.6s-10.81,6.53-16.49,4.44c-7.66-2.83-9.83-17.25-7.25-25.4,3.64-11.52,24-18.21,39.56-12.07,12.61,5,23.26,27.48,13.19,47,.66,0,.79-.52,1.32-.64,13.08-10.1,32-15.95,48.8-14.6,8.69.69,17.28,4.52,26.37,7.61,42.65,14.51,79.58,36.94,114.08,58.43,18.47,11.5,51.56,28.12,75.17,12.7-6.23,29.49-49.36,9.69-65.94,1.26-39-19.81-79-48.74-116.71-62.86,25.87,14.88,49.59,30.32,73.85,46.36,23.78,15.72,49.35,31.92,82.43,38.1-.17,3.79-2.73,3.56-4.62,4.44-16.67,7.71-48.14-9.52-59.35-15.87-29.36-16.66-54.13-41.86-82.42-57.79-15.19-8.55-32.47-17.66-51.44-19-26-1.9-43.1,10.24-45.5,29.84-2.46,20.17,11.41,36.44,27,36.2,10.77-.16,25.94-8.91,22.42-23.49-1-4.16-8.2-7.49-7.25-8.89,20.35-1.94,31.87,12.12,25.05,27.3-4.41,9.84-20.07,18-33.63,16.51-19.78-2.22-36.77-16.86-39.56-34.29.36,28.44,18.45,39.81,44.84,43.18-4.66,17.13-28.29,1.88-36.27-5.71-14.49-13.81-19.74-38-11.21-60.33-6.34,1.88-14.25,5.42-22.42,7.62-7.46,2-19.06,5.25-25.05-.64C1048.71,676.46,1085.61,654.19,1071.66,622.17Z" transform="translate(-130.66 -469.83)"/><path class="cls-31" d="M169.32,825.68c-6.11,20.74,14.48,30.82,30.76,36.75,37.4,13.61,95.06,11.88,122.41,32.66-17.06-5.09-37-14-58.91-15.65-32.91-2.49-66.33-4.1-88.37-19.05,16.46,24.82,58.37,22.85,96.22,27.22,30.74,3.55,63.45,10.37,75.93,27.9,14.11,19.8,1.25,49.65-20.95,51.72s-30.85-26.93-10.47-32.67c-2.69-14.59-22.49-6.18-24.22,4.09-3.88,23,21.5,40.51,44.51,29.94-2.74,2.86-8.65,6-14.4,6.8-12,1.66-22.69-4.85-30.76-8.16,9.42,28.86,52.05,12.18,64.15-6.13,2.09-3.16,2.12-6.94,5.23-8.16,3,5.29,6.44,16,11.78,21.09-8.58-14.68-6.39-43.89,8.51-52.4,15.16-8.66,30.33,9,18.33,21.1-4.48,1.24-7.72-2.38-10.47-.68-1.58,6.35,4.44,11.72,9.82,11.56,9.74-.28,15.26-13.56,13.09-24.49-2.48-12.48-18.65-22-30.77-15.65-6.13,3.21-10,10-13.74,16.33-.7,1.15-1.52,5.46-3.93,4.08-2.21,1.34-2.5-3.77-2.62-4.08-13.26-34.94-38-47.54-78.55-57.16-38.29-9.09-87.34-8-108-36.07C171.58,833.43,170.37,829.8,169.32,825.68Z" transform="translate(-130.66 -469.83)"/></svg>